<?xml version="1.0" encoding="UTF-8" standalone="no"?><svg version="1.1" viewBox="0 0 1024 1024" xml:space="preserve" xmlns:xlink="http://www.w3.org/1999/xlink" xmlns="http://www.w3.org/2000/svg" xmlns:svg="http://www.w3.org/2000/svg"><defs><linearGradient id="a"><stop offset="0" stop-color="#ffb600"/><stop offset="1" stop-color="#ffcb00"/></linearGradient><linearGradient xlink:href="#a" id="b" x1="563.57458" y1="170.8356" x2="563.57458" y2="1133.0164" gradientUnits="userSpaceOnUse" gradientTransform="matrix(1.6697115 0 0 1.0642491 -429.00698 -181.81164)"/></defs><path d="M1023.9999 703.6703c0 12.24394 0 24.46578-.0923 36.68749-.0607 10.3073-.1779 20.61447-.4453 30.89954-.2837 22.5344-2.2629 45.01565-5.9213 67.25295-3.8067 22.26183-10.9078 43.8113-21.08088 63.9583-20.61945 40.48081-53.52839 73.39129-94.0071 94.01169-20.13757 10.15963-41.67821 17.25773-63.91054 21.05973-22.26075 3.6732-44.74408 5.6545-67.27194 5.9217-10.29726.2661-20.59722.4218-30.89785.4669-12.2434.0714-24.46445.0714-36.68562.0714H320.3129c-12.22115 0-24.44231 0-36.68569-.0606-10.30054-.0405-20.60048-.1866-30.89786-.4453-22.54148-.2877-45.0292-2.2745-67.27197-5.944-22.23846-3.7846-43.78676-10.9085-63.91051-21.05986-40.474453-20.61649-73.382628-53.51855-94.007081-93.99013-10.169994-20.15946-17.275178-41.72376-21.0808488-63.98053C2.8006217 816.28975.82124261 793.81592.53759651 771.28886c-.26726224-10.3073-.40038136-20.61447-.44543709-30.9217C0 728.12315 0 715.9236 0 703.67966V320.33072c0-12.24407 0-24.48805.09215942-36.73201.04096-10.28505.17817485-20.59224.44543709-30.87719.2836461-22.52708 2.26333229-45.00092 5.92134369-67.23084 3.8065928-22.26176 10.9077838-43.81123 21.0808488-63.98046 20.619436-40.480777 53.52833-73.391427 94.007081-94.011821 20.13183-10.154396 41.66437-17.252253 63.8883-21.0596905C207.69585 2.7877383 230.17916.80650253 252.70702.51712013 263.01382.24985607 273.32052.11673607 283.60489.07168 295.84836 0 308.09175 0 320.29058 0h383.3742c12.24346 0 24.48687 0 36.70798.07168 10.30056.04096 20.60038.18636807 30.89785.44544013 22.52786.289792 45.01119 2.27061817 67.24964 5.92158837 22.26069 3.8068235 43.78692 10.9083665 63.93283 21.0596905 40.48882 20.614147 73.40659 53.525823 94.02934 94.011821 10.16138 20.15325 17.25908 41.71 21.05858 63.95824 3.6587 22.23729 5.638 44.7185 5.9214 67.25306.2674 10.30717.4002 20.61446.4453 30.89941.0923 12.24398.0923 24.46572.0923 36.68746Z" fill="url(#b)"/><path d="M512 139.0918c-52.23555 0-95.97384 11.42093-132.34375 30.79687-32.77395 17.4602-59.12847 41.31949-78.04492 68.98047-22.40121 32.75664-34.6753 68.27788-38.30469 107.19336-2.5547 27.39226-1.18328 58.73562 3.95313 86.27539 2.3552 12.62779 5.79627 26.27955 10.86328 41.20313 5.32539 15.68457 11.13332 30.0012 18.00781 42.98632 8.74715 16.52236 18.95615 33.51543 28.49414 48.76954 1.48284 2.37148 2.94818 4.99988 4.39062 7.27343 4.37573 6.89687 8.79614 13.46198 13.1875 20.34571 4.62933 7.2567 9.22687 14.53361 13.70899 21.88476 13.28811 21.79389 18.11951 30.67916 24.08203 44.00391 7.18222 16.05048 10.22444 25.71416 13.9082 37.51172 2.86358 9.17086 5.63432 23.15004 7.36914 38.05859 1.04429 8.97427 1.21763 20.47235 1.24414 23.36133.06643 7.23499 2.06718 15.21484 6.96485 20.02929 4.59305 4.51504 10.6728 7.13477 22.93164 7.13477h159.17578c12.25884 0 18.13937-2.6197 22.73242-7.13477 4.89767-4.81448 6.89842-12.7943 6.96485-20.02929.02653-2.88898.19985-14.38706 1.24414-23.36133 1.73482-14.90855 4.50556-28.88773 7.36914-38.05859 3.68376-11.79756 6.82559-21.46124 14.00781-37.51172 5.96252-13.32475 10.89353-22.21002 24.18164-44.00391 4.48212-7.35115 9.07963-14.62806 13.70899-21.88476 4.39139-6.88373 8.81176-13.44884 13.1875-20.34571 1.44245-2.27355 2.90778-4.90197 4.39062-7.27343 9.53799-15.2541 19.74699-32.24718 28.49414-48.76954 6.87449-12.98512 12.68242-27.30175 18.00781-42.98632 5.06701-14.92358 8.50808-28.57534 10.86328-41.20313 5.13641-27.53977 6.50783-58.88313 3.95313-86.27539-3.62939-38.91548-15.90348-74.43672-38.30469-107.19336-18.91645-27.66098-45.27097-51.52027-78.04492-68.98047C607.97384 150.51273 564.23555 139.0918 512 139.0918zm-92.84961 317.88281h184.53516c7.73199 0 14.30078 6.26801 14.30078 14s-6.36762 14-14.09961 14h-72.73438a5.1399095 5.1399095 0 0 0-5.14062 5.14062V684.9707c0 7.73199-6.26801 14-14 14s-14-6.26801-14-14V490.20508a5.230694 5.230694 0 0 0-5.23047-5.23047h-73.63086c-7.73199 0-14.09961-6.26801-14.09961-14s6.36762-14 14.09961-14zm11.68359 346.07617c-7.45583.00003-13.90036 6.02101-13.90039 13.44922.00003 7.42822 6.44456 13.44919 13.90039 13.44922h162.65625c7.45583-.00003 13.70115-6.021 13.70118-13.44922-.00003-7.42821-6.24535-13.44919-13.70118-13.44922H430.83398zm3.33399 44.97461c2.0354 10.57404 9.81304 19.57281 22.29492 26.30469 6.24093 3.36594 15.52406 6.08828 23.13086 7.9707 7.60679 1.88242 23.93797 2.82422 29.07422 2.82422h7.26367c5.13625 0 19.59242-.89102 27.38672-2.77344 3.01149-.72731 6.19294-1.48021 9.33789-2.44726 4.99477-1.53585 9.89783-3.50878 13.88086-5.57422 12.98188-6.73188 20.65195-16.52841 23.3457-26.30469H434.16797z" fill="#fff"/></svg>