<svg xmlns="http://www.w3.org/2000/svg" width="60" height="60" fill="none" viewBox="0 0 60 60"><rect width="60" height="60" fill="url(#a)" rx="13.28"/><path fill="#fff" fill-opacity="0.5" d="m12.784 50.335 4.54-2.27h32.54a1.135 1.135 0 1 1 0 2.27h-37.08"/><path fill="#fff" d="m31.928 30.507-3.866-3.866a.76.76 0 0 1-.012-1.058c7.052-7.42 11.162-11.608 18.41-16.112 1.891-1.176 4.066 0 3.026 1.891-3.539 6.442-8.365 11.134-16.49 19.146a.76.76 0 0 1-1.068-.002M30.411 31.639l-3.47-3.471a.76.76 0 0 0-1.072.001c-6.973 6.972-10.972 11.035-14.623 16.004a.75.75 0 0 0 .042.94l1.873 2.14a.73.73 0 0 0 .892.174c4.198-2.236 9.01-7.339 16.358-14.717a.76.76 0 0 0 0-1.071M11.326 47.365l-.112-.113a.757.757 0 0 0-1.192.16l-.89 1.556a.35.35 0 0 0 .479.478l1.556-.89a.757.757 0 0 0 .16-1.191"/><defs><linearGradient id="a" x1="30" x2="30" y1="0" y2="60" gradientUnits="userSpaceOnUse"><stop stop-color="#FFB52C"/><stop offset="1" stop-color="#FB8718"/></linearGradient></defs></svg>